<?xml version="1.0" encoding="UTF-8" standalone="no"?>
<!-- Svg Vector Icons : http://www.onlinewebfonts.com/icon -->

<svg
   xmlns:dc="http://purl.org/dc/elements/1.1/"
   xmlns:cc="http://creativecommons.org/ns#"
   xmlns:rdf="http://www.w3.org/1999/02/22-rdf-syntax-ns#"
   xmlns:svg="http://www.w3.org/2000/svg"
   xmlns="http://www.w3.org/2000/svg"
   xmlns:sodipodi="http://sodipodi.sourceforge.net/DTD/sodipodi-0.dtd"
   xmlns:inkscape="http://www.inkscape.org/namespaces/inkscape"
   version="1.1"
   x="0px"
   y="0px"
   viewBox="0 0 1000 1000"
   enable-background="new 0 0 1000 1000"
   xml:space="preserve"
   id="svg8"
   sodipodi:docname="likered.svg"
   inkscape:version="0.92.3 (2405546, 2018-03-11)"><defs
   id="defs12" /><sodipodi:namedview
   pagecolor="#ffffff"
   bordercolor="#666666"
   borderopacity="1"
   objecttolerance="10"
   gridtolerance="10"
   guidetolerance="10"
   inkscape:pageopacity="0"
   inkscape:pageshadow="2"
   inkscape:window-width="1366"
   inkscape:window-height="719"
   id="namedview10"
   showgrid="false"
   inkscape:zoom="0.236"
   inkscape:cx="500"
   inkscape:cy="500"
   inkscape:window-x="0"
   inkscape:window-y="0"
   inkscape:window-maximized="1"
   inkscape:current-layer="svg8" />
<metadata
   id="metadata2"> Svg Vector Icons : http://www.onlinewebfonts.com/icon <rdf:RDF><cc:Work
     rdf:about=""><dc:format>image/svg+xml</dc:format><dc:type
       rdf:resource="http://purl.org/dc/dcmitype/StillImage" /><dc:title></dc:title></cc:Work></rdf:RDF></metadata>
<g
   id="g6"><path
     d="M979.9,631.6c0-33.9-13.7-59.8-36.1-74.8c13.6-7.8,35.9-46.6,35.9-80.9c-1.3-56.6-54.9-126.7-135.9-126.7l-214.5,0C666,247.1,659,137.6,612.9,64.1C585.2,19.9,551.8,10,528.7,10c-77.8,0-93.3,76.6-93.3,102.6c0,87.1-12.3,126.9-27.7,163.6c-12.1,23.7-73.8,111.1-149.9,111.1H115.1c-55.1,0-95.1,47.1-95,114.1l37,389.4c4.5,61.4,34,98.6,93.3,98.6c0,0,29.5,0.3,51.6,0.3c11.3,0,21.8-0.1,28-0.3c18.3-0.6,33.3-12.6,46.6-22.6c9.4-7.1,16.9-13.2,23.7-13.2c3,0,20.3,10.1,41.6,19.3c21.6,9.4,56,17.1,88.9,17.1h298.5c100,0,148.1-38.3,148.1-102.1c0-18.8-4.2-30-14.6-44.7c40.2-9.9,75.8-35.6,75.8-80.1c0-16.5-7.6-43.1-18-50C940.3,708,979.9,672.2,979.9,631.6z M181.5,916.3c-23,0-43.4-22.1-48.6-51.9L94.7,525.1c0-31,24.4-65,57.1-65v1.4l96,0.3v454c-4.7,0.4-9.4-2.1-12.1-1.8C217.8,914.6,181.9,916.3,181.5,916.3z M828.9,685.9c0,0-5.4,0-5.4,0l0.5,37c4.3,1.7,20.4,6.7,20.4,38.8c0,34.4-34.9,48.3-72.3,48.3h0.1l-0.7,35.3c15.2,3.5,20.7,17,20.6,38.7c0,37.9-39.6,32.3-63.9,29.9H419.3c-14.8,0-78.9-32.3-96.2-40.8c-0.3-0.2-0.5-0.1-0.8-0.2V450.3c75.9-30.6,139.9-113.9,155.5-144.6c17.6-41.8,12.4-70.2,12.4-166.1c0-47.6,17.1-54,35.4-54c16.1,0,32.3,4,45.3,24.7c38.4,61.1,21.5,175.3-26.2,274l-8.3,41.3l309.2-0.1c46.6,2.6,44.2,15,44.2,50.2l-0.3,11c0.1,0.5-1.2,30.5-16.8,43.7c-13.1,11.1-23.7,11.5-23.7,11.5l-0.3,36.4c0,0,15.8,2.2,24.1,7.9c12.4,8.7,18,25.2,17.4,43.2C889.3,652.1,850.1,685.9,828.9,685.9z"
     id="path4" /></g>
<path
   style="fill:#ff0000;fill-opacity:1;stroke-width:0.42372882;stroke-miterlimit:4;stroke-dasharray:none"
   d="m 573.30508,911.28343 -169.49152,-2.38512 -38.13559,-17.87793 -38.1356,-17.87788 -1.08102,-210.93568 -1.08101,-210.93563 24.3861,-12.50592 c 34.51165,-17.6986 109.71442,-93.5231 126.33948,-127.38399 12.26883,-24.98841 12.4848,-26.65453 14.57205,-112.41738 2.52705,-103.834143 4.56914,-109.980849 36.53836,-109.980849 16.29394,0 21.63068,2.236842 33.38814,13.994299 38.84935,38.84935 37.14863,144.36014 -4.00694,248.58554 -7.8508,19.88193 -16.12934,45.20618 -18.39675,56.27609 l -4.12257,20.12712 h 167.0518 167.05181 l 10.98254,10.98254 c 10.32755,10.32753 10.83407,12.75347 8.49318,40.67566 -2.80779,33.49125 -10.79017,48.94841 -28.78572,55.74095 -11.04962,4.17081 -12.25737,6.52598 -12.21856,23.82644 0.0424,18.30594 0.81466,19.52212 16.64602,26.16924 13.59475,5.7081 17.555,10.14907 21.85805,24.51136 4.47792,14.94589 4.22775,19.69479 -1.6914,32.10733 -8.19572,17.18661 -38.16186,40.22377 -52.32203,40.22377 -9.09089,0 -9.95746,1.79881 -9.95746,20.66962 0,16.17542 1.90042,21.9336 8.74038,26.48305 5.61924,3.73746 9.59704,12.21233 11.13915,23.7325 3.96678,29.63233 -13.44275,47.46047 -52.71851,53.98623 l -18.00848,2.99216 v 18.69534 c 0,10.28241 2.00407,18.69534 4.45352,18.69534 7.35229,0 17.45254,29.45042 14.58216,42.51902 -3.46288,15.76653 -9.63686,20.35585 -29.83911,22.18026 -9.20644,0.83144 -93.01013,0.43834 -186.23047,-0.87348 z"
   id="path14"
   inkscape:connector-curvature="0" /></svg>